<svg id="Layer_1" data-name="Layer 1" xmlns="http://www.w3.org/2000/svg" viewBox="0 0 333.59 667.24"><defs><style>.cls-1{fill:none;}.cls-1,.cls-2{stroke:#000;stroke-miterlimit:10;stroke-width:8px;}.cls-2{fill:#55bcdf;}</style></defs><title>balloon</title><path class="cls-1" d="M301.13,46h30.94a9.36,9.36,0,0,0,1.63.37c20,1.17,38.55,7.4,55.69,17.26,54.4,31.31,82,80.15,90.83,140.94,1,6.95,1.26,14,1.86,21v10.76c-.73,6.78-.85,13.61-1.68,20.39-4.36,35.63-17,67.92-38.82,96.44-16.43,21.52-36.2,39.11-61.4,49.95-14.58,6.27-29.53,11.14-45.38,13-4.07.47-4.39,1.24-2.76,5.09,1.93,4.53,4.18,8.93,6.1,13.47,4.08,9.67,2.23,12.63-8.19,13.12-2.16.1-3.11.66-2.52,3,2.85,11.47,4,23.17,4.51,34.93s.94,23.75-.2,35.6c-1.1,11.42-4.14,22.48-7.27,33.45-7.79,27.28-13.7,54.76-11.69,83.41.69,9.83,1,19.68,2.52,29.44,1.46,9.42,4,18.62,5.83,28,.68,3.4,1.45,6.93-1.84,9.62h-4.71c-3.93-2.85-4.51-7.4-5.49-11.56-5.27-22.44-7.44-45.27-8.14-68.26-.52-17.2,3.24-33.8,7-50.44,4.61-20.6,12.39-40.53,12.95-62,.49-19,.73-37.88-3.7-56.49-1.87-7.83-.9-8.66-10.46-8.71-7.17,0-9.45-3.42-7.29-10.28,1.52-4.83,4.08-9.21,6.17-13.79,3-6.57,2.61-7.25-4.44-8.13a142.41,142.41,0,0,1-64.72-24.71c-46.52-32.55-70.5-78.67-78.19-134.1-1-7-1.05-14.05-1.74-21.06V224.93c.35-4.23.69-8.47,1.05-12.7C160,183,168,155.46,183,130.14c15.44-26.15,34.84-48.58,61.5-64A165.46,165.46,0,0,1,301.13,46Z" transform="translate(-152.5 -41.99)"/><ellipse class="cls-2" cx="166.74" cy="188.01" rx="150.76" ry="174.22"/></svg>