<svg xmlns="http://www.w3.org/2000/svg" viewBox="0 0 300 300"><path fill="#120e20" d="M0 0h300v300H0z"/><path fill="none" stroke="#3f9" stroke-linecap="round" stroke-linejoin="round" stroke-miterlimit="10" stroke-width=".538" d="M150.1 112.6l-16.4 26.6 16.4 26.6 16.5-26.6zm.1 53.2L128 201.5l19.3-40.3zm-.1 0L137 211.2l3.2-29.3zM128 201.5l9 9.7-5.5-15.2zm7 4l-3.5-9.5.4 9.6 5.1 5.6-2-5.7m15.2-39.7v37.1l-3.6-24.9zm-3.6 12.2l3.6 24.9-6.7-5zm3.6 24.9V226l-5.6-6.7zm-5.6 16.4l5.6-16.4-6.7-5zm0 0l-3.8-4.1 2.7-17.3zM128 201.5l19.3-40.3 2.9 4.6zm22.2-35.7l22.1 35.7-19.3-40.3zm0 0l13.1 45.4-3.2-29.3zm22.1 35.7l-9 9.7 5.5-15.2zm-3.5-5.5l-.4 9.6-5.1 5.6zm-18.6-30.2l-.1 37.1 3.6-24.9zm3.5 12.2l-3.6 24.9 6.7-5zm-3.6 24.9V226l5.7-6.7zm5.7 16.4l-5.7-16.4 6.7-5zm0 0l3.7-4.1-2.7-17.3zm16.5-17.8L153 161.2l-2.8 4.6zM137.1 123l-3.4 16.1 24.4-39.2zm0 .1l13.1-10.5-16.5 26.5zm1-6.5l14.3-18.4 5.7 1.7zm46.7 39.8l-2.3-22.7-4.2 16.6zm-2.3-22.7l17.9 14.4-16.9-4.5zm17.9 14.4l-15.6 8.3-1.3-12.8zm-37.5-25.2l19.6 10.8-29.9-25.1zm17.4 19.2l-14-3.1 12 11.3zm0 0l-14-3.1-3.4-16.1zm-7-16l56.7 6.3-24.8 13.2zm31.9 19.5l-5.7-16.6-15.6 3.6zm-5.7-16.6l-15.6 3.6-10.6-6.6zm0 0l5.7 16.6 11.7-6.2zm0 0l17.4 10.4 13.1-7zm30.5 3.4l-30.5-3.4-14.7-9.7zm-45.2-13.1l.7 8.2 14 1.5zm0 0l.7 8.2-21.7-21.1zm.7 8.2l-21.7-21.1-1.9 10.1zm0 0l-12.2-1.5-11.4-9.5zm-.7-8.2l21.3-15.1h-13.9zm0 0l-15.9-15.1-5.1 2.2zm-5-4.8l12.4-10.3h-23.3zm0 0l5 4.8 7.4-15.1zm5 4.8l54.1 8-48.4-12.1zm54.1 8l-32.8-23.1-15.6 11zm.4.2l17.3-9.1-30.3.1zm-13-9l-20.2-14.3h12.5zm0 0l31.8-14.3h-39.5zm0 0l57-14.2-25.2-.1zm57-14.2l-26.7 14.1-30.3.1zm-133.1 8.3l12.7 10.3-10.3-14.3zm0 0l16.4 26.6-3.7-16.3zm7.9-12.7l3.8 16.6 1.9-10.1zm0 0l3.8 16.6-9.3-7.9zM131.5 196l5.5 15.2 3.2-29.3zm37.3 0l-5.5 15.1-3.2-29.3zm11.5-53.9l2.2-8.4-19.6-10.8zm-30.1-29.5v19.2l-16.5 7.4zm0 0v19.2l16.4 7.4zm0 53.2v-19.3l-16.5-7.4zm0 0v-19.3l16.4-7.4zm0-19.3v-7.3h16.4zm0 0v-7.3h-16.5zm0-14.7v7.3h16.4zm0 0v7.3h-16.5zm-.1-19.2l-16.4 26.6 16.4 26.6 16.5-26.6zm0 53.2L128 201.5l19.3-40.3zm0 0L137 211.2l3.2-29.3zM128 201.5l9 9.7-5.5-15.2zm6.9 4l-3.4-9.5.3 9.6 5.2 5.6-2.1-5.7m15.2-39.7l.1 37.1-3.6-24.9zm-3.5 12.2l3.6 24.9-6.7-5zm3.6 24.9V226l-5.7-6.7zm-5.7 16.4l-3.8-4.1 2.8-17.3zM128 201.5l19.3-40.3 2.8 4.6zm-12.8-44.9l2.3-22.7 4.2 16.6zm18.5-17.5l-12 11.4-4.2-16.6 40.5-34zm-16.2-5.2l-17.9 14.4 16.9-4.5zm-17.9 14.4l15.6 8.3 1.3-12.8zm20.1-6l-2.2-8.4 40.5-34zm17.4-19.3l-19.6 10.9 40.5-34zm-17.4 19.3l14-3.2-12 11.4zm0 0l14-3.2 3.4-16zm17.4-19.2l13-10.5-16.4 26.5zm-10.4 3.1L70 132.6l24.8 13.2zm-31.9 19.6l5.7-16.6 15.6 3.6zm5.7-16.6l15.6 3.6 10.6-6.6zm0 0l-5.7 16.6-11.7-6.2zm0 0l-17.4 10.4-13.1-7zM70 132.6l30.5-3.4 14.7-9.7zm45.2-13.1l-.6 8.1-14.1 1.6zm0 0l-.6 8.1 21.6-21zm-.6 8.1l21.6-21 1.9 10zm0 0l12.1-1.4 11.4-9.6zm21.6-21l1.9 10 2.7-21.8zm4.6-11.8l17.2 5.1-19.9 16.7zm-2.7 21.8l14.3-18.4 5.6 1.7zm7.8-20.3l-7.8 20.3 2.7-21.8zm-5.1-1.5l5.6-12.1 3.9 5.8zm0 0l17.2 5.1-12.2-8.4zm5-3.3l4.5-3 7.7 11.4zm-30.6 28l-21.3-15.1h13.9zm0 0l15.9-15.1 5.1 2.2zm5-4.8l-12.4-10.3h23.3zm0 0l-5 4.8-7.4-15.1zm-5 4.8l-54.1 8 48.4-12.1zm-54.1 8l32.8-23.1 15.6 11zm-.4.2l-17.3-9.1 30.3.1zm13-9l20.2-14.3H81.4zm0 0l-31.8-14.3h39.5zm0 0l-57-14.3h25.2zm-57-14.3l26.7 14.2 30.3.1zm165.7 29.3l-4.1 16.6m5.1-6.7l-1-9.9m-19.5-10.8l19.5 10.8-29.8-25.1zm21 9.7l-10.6-6.6m-9.6-19.6l-1.8 10.1m11.4 9.5l-11.4-9.5m44.2-12.3h-14m-23.2 0l-5.2 2.2m16.1 8.1l12.3-10.3h-23.2zm12.3-10.3l-12.3 10.3m26.3-10.3h12.5m39.5 0h-39.5m64.7.1l-25.2-.1m-108 8.4l12.8 10.3-10.3-14.3zm12.8 10.3l-12.8-10.3 16.5 26.6M158 99.9l3.9 16.6 1.8-10.1zm-11.6-17.2l8.2-8.7-23.7 11.8zm0 0l-13.7 12.8-1.8-9.7zm-13.7 12.8l8.1-.7 5.6-12.1zm-5 4.3l3.2-14 1.8 9.7zm0 0l-1.7-5.7 2.4 2.7zm.7-3l-2.4-2.7 4.9-8.3zm3.1 99.2l5.5 15.2 3.2-29.3zm14.4-99.7l6.5 1.9-14.3 18.4zm4.2 16.3v19.2l-16.4 7.4zm0 0v19.2l16.5 7.4zm0 53.2v-19.3l-16.4-7.4zm0 0v-19.3l16.5-7.4zm0-19.3v-7.3h16.5zm.1 0v-7.3h-16.5zm-.1-14.7v7.3h16.5zm.1 0v7.3h-16.5z"/></svg>