<svg id="Layer_1" data-name="Layer 1" xmlns="http://www.w3.org/2000/svg" viewBox="0 0 1984.18 3259.65"><title>FantasticBooks logo - Library VR</title><path d="M942.86,492.92a72.89,72.89,0,0,1-9.06.5q-3.52,0-18.63-1.51-20.13,51.34-38.5,77.52a174.08,174.08,0,0,1-45,44.29q-29.19,19.63-69.71,31.21a288.14,288.14,0,0,1-79.28,11.57q-47.82,0-76.5-24.66t-28.69-65.43q0-42.78,33.22-79.28T695.72,436q46.81-72.48,132.88-96.64Q811,315.75,771.72,315.75q-56.88,0-112.24,60.9-3,3.53-4.53,3.52c-1-.33-1.51-.83-1.51-1.51q0-4,22.15-25.16,43.78-41.78,96.64-41.78,39.25,0,61.4,26.17a221.36,221.36,0,0,1,52.85-6.54q50.34,0,137.42,26.17,43.78-18.12,95.63-18.12,31.71,0,53.86,8.06t22.14,19.62q0,14.61-29.44,24.42t-74.24,9.81q-45.3,0-108.22-17.11-36.24,25.67-58.39,84.06-2.52,6.54-8,19.63,13.08,1.5,18.12,1.51a72.76,72.76,0,0,0,9.06-.51q13.08-35.73,37.24-35.73,17.11,0,17.12,12.58,0,18.12-36.75,26.17-5,24.68-18.62,39.77t-30.7,15.1q-3.52,0-3.53-2.52,0-1,5-3Q929.75,534.7,942.86,492.92Zm-266.77,3.52v-4.53q0-18.12,12.08-42.28A173.42,173.42,0,0,0,621,506.51q-26.43,37.26-26.43,75.5,0,31.22,22.65,50.33t60.4,19.13q31.71,0,65.69-17.62a199.8,199.8,0,0,0,59.64-47.31q21.63-24.66,70-97.65-37.74,0-47.81,27.69-1.51,3.52-3,3.52a1.78,1.78,0,0,1-2-2q0-10.58,13.85-21.9t42-11.83A349.6,349.6,0,0,1,977.59,382.69q-52.24-15.1-66.94-18.12-38.53-9.06-69-9.06,8.55,21.64,8.55,42.28,0,54.87-42.28,98.65a40.59,40.59,0,0,1,.51,6.55q0,44.81-35.74,82.54t-78,37.75q-26.18,0-42.53-15.85t-16.36-41Q635.82,525.64,676.09,496.44ZM803.94,501q-40.28,38.78-82.05,38.76-30.71,0-42.78-28.69-29.7,30.19-29.7,59.39,0,21.65,13.09,35t34.23,13.34q39.25,0,73.23-37.24T803.94,501Zm-122.82-7.55q27.68-15.59,52.35-15.6a48.58,48.58,0,0,1,24.16,6.54q11.58,6.56,11.58,13.59c0,1.35-.51,2-1.51,2q-1,0-3-3-8.56-14.08-28.69-14.1-23.67,0-52.85,24.67,9.55,26.18,34.73,26.17,41.26,0,82.54-54.86-14.08-40.77-62.91-40.77-20.65,0-42.28,8.55Q682.64,469.77,681.12,493.42Zm21.65-58.89q17.61-3,29.19-3,54.85,0,72,42.79,37.74-52.35,37.75-95.13a100,100,0,0,0-3-23.16Q760.15,357,702.77,434.53ZM963,486.88q30.21-7,30.2-20.64,0-8-8.05-8.05Q969,458.19,963,486.88Zm67-127.85q7.55,2.52,19.63,6,61.4,18.12,101.67,18.12,39.75,0,39.76-16.11,0-9-21.64-15.85T1120,344.44Q1066.68,344.44,1029.94,359Z" transform="translate(-577.44 -311.72)"/><path d="M1049.06,549.29l21.14-36.74a92.72,92.72,0,0,0,19.13,2q8.55,0,28.69-2l-33.22,54.86q-38.25,63.42-38.25,69,0,8.57,10.06,8.56,24.66,0,75.5-75,4-6,6-6c1,0,1.51.34,1.51,1q0,4.53-36.24,49.83-28.68,35.74-52.85,35.73a31.13,31.13,0,0,1-23.15-9.81,33,33,0,0,1-9.56-23.91q0-10.57,7-24.66-34.23,58.39-63.42,58.38-16.11,0-27.93-13T921.72,606q0-31,38-62.21T1035,512.55q20.64,0,20.64,16.17Q1055.61,536.07,1049.06,549.29Zm-8.55-33.22q-18.12,0-52.1,45.63t-34,70.19q0,13,11.07,13,21.63,0,53.35-48.64,33.23-51.12,33.22-67.18Q1052.08,516.07,1040.51,516.07Z" transform="translate(-577.44 -311.72)"/><path d="M1209.12,579.49l6-6.54,15.6-22.15a116.56,116.56,0,0,1,27.69-28.18q15.58-11.07,27.68-11.08,14.59,0,24.16,10.32t9.56,25.92q0,12.09-8,26.68-1.52,2.52-15.6,23.15-22.65,33.23-22.65,38.76,0,8.57,10.57,8.56,24.15,0,75-75,4-6,6.54-6a.9.9,0,0,1,1,1q0,6-35.74,49.83-29.21,35.74-53.86,35.73-14.1,0-24.41-10.57t-10.32-24.66q0-14.09,17.11-39.76,31.21-46.31,31.21-51.85,0-8-8.56-8-23.14,0-63.42,57.38-18.12,25.66-45.8,77.51-8.06-2.52-21.14-2.51a171.78,171.78,0,0,0-28.19,2.51l32.72-54.36q37.24-61.9,37.25-71.47,0-7.54-7.55-7.55-14.1,0-50.34,53.86-2,3-3.52,3c-1-.33-1.51-.84-1.51-1.51q0-4,25.67-36.24,19.63-24.66,36.74-24.67a28.4,28.4,0,0,1,21.4,9.31,31.51,31.51,0,0,1,8.8,22.4Q1223.21,561.88,1209.12,579.49Z" transform="translate(-577.44 -311.72)"/><path d="M1443.17,510.54h32.21l-2,3.52h-32.21l-63.42,106.71q-6.56,11.07-6.55,16.1,0,8.57,9.06,8.56,28.18,0,78.52-75.5c2.69-4,4.86-6,6.55-6a.89.89,0,0,1,1,1q0,5.54-36.24,49.83-29.19,35.74-52.85,35.73a34.39,34.39,0,0,1-24.91-10.06A33.12,33.12,0,0,1,1342,615.73q0-14.6,18.62-45.8l33.22-55.87h-25.16l2-3.52h25.17l28.69-48.32q8,3.52,19.63,3.52,9.55,0,27.68-3.52Z" transform="translate(-577.44 -311.72)"/><path d="M1571.52,549.29l21.14-36.74a92.63,92.63,0,0,0,19.12,2q8.55,0,28.69-2l-33.22,54.86q-38.25,63.42-38.25,69,0,8.57,10.07,8.56,24.65,0,75.5-75,4-6,6-6c1,0,1.51.34,1.51,1q0,4.53-36.24,49.83-28.7,35.74-52.85,35.73a31.15,31.15,0,0,1-23.16-9.81,33,33,0,0,1-9.56-23.91q0-10.57,7-24.66-34.24,58.39-63.42,58.38-16.12,0-27.94-13T1444.17,606q0-31,38-62.21t75.25-31.23q20.64,0,20.64,16.17Q1578.06,536.07,1571.52,549.29ZM1563,516.07q-18.12,0-52.1,45.63t-34,70.19q0,13,11.07,13,21.64,0,53.36-48.64,33.21-51.12,33.22-67.18Q1574.54,516.07,1563,516.07Z" transform="translate(-577.44 -311.72)"/><path d="M1666.14,563.89l47.31-53.35q1.52-18.62,9.31-31.71t17.87-13.09q7,0,7,7.05,0,7.54-28.69,36.24l-3.52,3.52q0,22.16,17.61,51.84,9.06,15.61,9.06,27.69,0,24.66-23.4,41.27T1660.6,650q-40.77,0-40.77-35.23,0-19.12,12.59-35.49t27.18-16.36A20.61,20.61,0,0,1,1666.14,563.89ZM1713,515.57l-43.29,49.83q7,6.54,7,14.09,0,21.15-27.68,24.16-23.67,3-23.66,18.63a19.56,19.56,0,0,0,6.79,14.84,23.21,23.21,0,0,0,16.36,6.3q25.17,0,47.82-44.3,10.07-19.62,13.59-66.44A132,132,0,0,1,1713,515.57Z" transform="translate(-577.44 -311.72)"/><path d="M1853.88,510.54h32.21l-2,3.52h-32.21l-63.42,106.71q-6.56,11.07-6.55,16.1,0,8.57,9.06,8.56,28.18,0,78.52-75.5c2.69-4,4.86-6,6.55-6a.89.89,0,0,1,1,1q0,5.54-36.24,49.83-29.19,35.74-52.85,35.73A34.39,34.39,0,0,1,1763,640.4a33.12,33.12,0,0,1-10.32-24.67q0-14.6,18.62-45.8l33.22-55.87h-25.16l2-3.52h25.17l28.69-48.32q8,3.52,19.63,3.52,9.55,0,27.68-3.52Z" transform="translate(-577.44 -311.72)"/><path d="M1952,510.54l-59.4,100.66q-12.08,20.65-12.08,25.17,0,8.57,9.57,8.56,24.15,0,75-75,4-6,6-6c1,0,1.51.34,1.51,1q0,5.54-35.73,49.83-28.7,35.74-53.86,35.73-13.1,0-22.4-10.06a34.33,34.33,0,0,1-9.31-24.16q0-17.12,16.61-44.8l36.24-60.9q8,2.52,21.64,2.51A162.08,162.08,0,0,0,1952,510.54ZM1973.67,428q15.11,0,15.1,15.6,0,14.1-14.6,28.94T1945,487.38q-15.6,0-15.6-15.6,0-14.08,15.1-28.94T1973.67,428Z" transform="translate(-577.44 -311.72)"/><path d="M2062.76,511.54q23.65,0,23.65,26.68a55,55,0,0,1-10.31,32Q2065.77,585,2054.2,585q-15.6,0-15.6-15.6,0-20.64,27.68-30.2,12.07-4,12.08-11.58,0-12.07-12.08-12.08-17.12,0-47.56,42.53t-30.46,66.19q0,21.13,26.18,21.14,42.27,0,92.11-75.5,4-6,6.54-6a.9.9,0,0,1,1,1q0,7.05-34.23,44.79-36.75,40.77-72,40.77-23.15,0-38.75-13.84t-15.61-34.48q0-30.69,36.24-60.65T2062.76,511.54Z" transform="translate(-577.44 -311.72)"/><path d="M1737.4,1184.92l10.5-18.25a45.7,45.7,0,0,0,9.5,1q4.24,0,14.25-1l-16.5,27.25q-19,31.5-19,34.25c0,2.84,1.66,4.25,5,4.25q12.24,0,37.5-37.25,2-3,3-3c.5,0,.75.17.75.5q0,2.25-18,24.75-14.25,17.76-26.25,17.75a15.45,15.45,0,0,1-11.5-4.87,16.37,16.37,0,0,1-4.75-11.88q0-5.25,3.5-12.25-17,29-31.5,29-8,0-13.88-6.45a22.37,22.37,0,0,1-5.87-15.64q0-15.37,18.87-30.89t37.38-15.52q10.24,0,10.25,8Q1740.65,1178.36,1737.4,1184.92Zm-4.25-16.5q-9,0-25.88,22.67T1690.4,1226c0,4.32,1.83,6.47,5.5,6.47q10.74,0,26.5-24.15,16.5-25.39,16.5-33.37Q1738.9,1168.42,1733.15,1168.42Z" transform="translate(-577.44 -311.72)"/><path d="M1816.89,1199.92l3-3.25,7.75-11a58.15,58.15,0,0,1,13.75-14q7.75-5.49,13.75-5.5a15.67,15.67,0,0,1,12,5.13,18.2,18.2,0,0,1,4.75,12.87q0,6-4,13.25-.75,1.26-7.75,11.5-11.25,16.5-11.25,19.25c0,2.84,1.75,4.25,5.25,4.25q12,0,37.25-37.25,2-3,3.25-3a.44.44,0,0,1,.5.5q0,3-17.75,24.75-14.49,17.76-26.75,17.75a16.37,16.37,0,0,1-12.12-5.25,17,17,0,0,1-5.13-12.25q0-7,8.5-19.75,15.51-23,15.5-25.75c0-2.66-1.41-4-4.25-4q-11.49,0-31.5,28.5-9,12.75-22.75,38.5a36.19,36.19,0,0,0-10.5-1.25,85.86,85.86,0,0,0-14,1.25l16.25-27q18.51-30.75,18.5-35.5,0-3.75-3.75-3.75-7,0-25,26.75c-.66,1-1.25,1.5-1.75,1.5q-.75-.24-.75-.75,0-2,12.75-18,9.75-12.24,18.25-12.25a14.11,14.11,0,0,1,10.63,4.63,15.64,15.64,0,0,1,4.37,11.12Q1823.89,1191.17,1816.89,1199.92Z" transform="translate(-577.44 -311.72)"/><path d="M1948.89,1182.42l48.75-81a33.42,33.42,0,0,0,9.5,1.25q4.26,0,14.75-2l-51.5,84.5-13,21.75q-3.24,5.5-7.25,12.5t-4,9q0,4,5,4,12,0,37.25-37.25,2-3,3-3c.5,0,.75.17.75.5q0,2.5-18,24.75-14.25,17.76-26.25,17.75a14.84,14.84,0,0,1-11.25-4.75,16.73,16.73,0,0,1-4.5-12q0-4.5,4-12.5-18,29.25-31.75,29.25a18.34,18.34,0,0,1-14.12-6.5,22.63,22.63,0,0,1-5.88-15.75q0-15.24,18.75-31t37-15.75q10.75,0,10.75,9A20.56,20.56,0,0,1,1948.89,1182.42Zm-5.75-14q-8.75,0-25.62,22.91t-16.88,34.87q0,6.22,5.75,6.22,10.5,0,25.75-23.16,17-25.89,17-34.11Q1949.14,1168.43,1943.14,1168.42Z" transform="translate(-577.44 -311.72)"/><path d="M2205.87,1166.67l-23,37.75q-11.74,19.26-11.75,23c0,3.34,2.25,5,6.75,5q10.76,0,28.5-24a25.32,25.32,0,0,1-3-12.75,37.5,37.5,0,0,1,6.38-20.62q6.38-9.87,13.62-9.88,5,0,5,5,0,4.75-6.12,16.38a159.46,159.46,0,0,1-13.88,21.87,11.37,11.37,0,0,0,9.25,4.75q11.51,0,23.5-18,2-3,3-3a.44.44,0,0,1,.5.5q0,1.75-8.25,11.5-9,10.75-19,10.75a12.08,12.08,0,0,1-9.75-5q-11,14.25-18.12,19.75t-14.63,5.5a19.09,19.09,0,0,1-13.12-5,15.51,15.51,0,0,1-5.63-12q0-6.24,4.75-14.25-20,31.26-36.75,31.25a15.23,15.23,0,0,1-11.37-4.75,15.85,15.85,0,0,1-4.63-11.5,23.18,23.18,0,0,1,1.63-9.25q1.62-3.75,9.87-17.75,3.75-6.5,14.25-25.25a43.2,43.2,0,0,0,10.25,1q4,0,13.5-1l-21,35.5q-13.24,22.5-13.25,26.5,0,3.75,4,3.75,16.76,0,49.75-57.5l4.75-8.25a65.2,65.2,0,0,0,11.25,1Q2196.38,1167.67,2205.87,1166.67Z" transform="translate(-577.44 -311.72)"/><path d="M2292.87,1144.7l-32.75,54.22q21.49-32.75,36.5-32.75a16.1,16.1,0,0,1,12.13,5.13,17.61,17.61,0,0,1,4.87,12.62q0,5.25-9,20l-6,9.75q-1.76,2.76-5.25,8c-1.84,2.84-2.75,5-2.75,6.5,0,2.84,1.58,4.25,4.75,4.25q12.49,0,37.75-37.25,2-3,3-3c.5,0,.75.17.75.5q0,2.25-18,24.75-14.25,17.76-26.25,17.75a17.94,17.94,0,0,1-17.5-17.5,21.67,21.67,0,0,1,2.5-10.25q2.49-4.74,17.5-27.5,3.75-5.75,3.75-8,0-3.75-3.75-3.75-9.51,0-25.62,20.38a204.51,204.51,0,0,0-27.38,46.62,32.65,32.65,0,0,0-10-1.25,97.7,97.7,0,0,0-13.25,1.25l22.5-40.75q3.24-5.75,15-26.25l38.5-66.75a38.06,38.06,0,0,0,10.5,1.5,105.25,105.25,0,0,0,14.25-1.5q-1.5,2.25-9,14.93Q2304.62,1125.8,2292.87,1144.7Z" transform="translate(-577.44 -311.72)"/><path d="M2350.62,1202.42q-6.26,10.5-6.25,20.25,0,10.5,12,10.5,22.74,0,47.75-38,2-3,3-3c.5,0,.75.17.75.5q0,1.26-5.88,9.13a141.24,141.24,0,0,1-10.37,12.62q-19.76,20.76-37,20.75-11.76,0-19.63-6.87a21.8,21.8,0,0,1-7.87-17.13q0-15.5,17.87-30.25t36.63-14.75a17.18,17.18,0,0,1,10.37,3q4.13,3,4.13,7.25Q2396.12,1192.42,2350.62,1202.42Zm.75-1.75q15.49-4.25,23.5-12,9.75-9.5,9.75-17.25,0-3.75-4.25-3.75Q2369.61,1167.67,2351.37,1200.67Z" transform="translate(-577.44 -311.72)"/><path d="M2440.12,1206.92l2.25-2.5,3.5-4.25c1-1,2.58-2.66,4.75-5a44.35,44.35,0,0,1,9.75-20.62q7.24-8.37,15.5-8.38,5,0,5,4.25,0,5.25-19.75,19-4.5,3.25-9,6.75a28.08,28.08,0,0,0-.25,4,13.6,13.6,0,0,0,3.25,9.25,10.42,10.42,0,0,0,8.25,3.75q10.5,0,23.25-18,2-3,3-3c.5,0,.75.17.75.5q0,2.25-9.25,12.25t-17.5,10q-12.75,0-13.25-17-14.25,14-26,37.25a39.62,39.62,0,0,0-11.25-1.25,63,63,0,0,0-13.25,1.25l17.25-28.75q17.74-29.49,17.75-33.75,0-3.75-3.75-3.75-7.5,0-25,26.75c-.67,1-1.25,1.5-1.75,1.5q-.75-.24-.75-.75,0-2.25,12.75-18,10-12.24,18.25-12.25a13.39,13.39,0,0,1,10.5,4.5q4,4.5,4,11.75Q2449.12,1193.92,2440.12,1206.92Z" transform="translate(-577.44 -311.72)"/><path d="M2504.37,1202.42q-6.26,10.5-6.25,20.25,0,10.5,12,10.5,22.74,0,47.75-38,2-3,3-3c.5,0,.75.17.75.5q0,1.26-5.88,9.13a143,143,0,0,1-10.37,12.62q-19.76,20.76-37,20.75-11.76,0-19.63-6.87a21.8,21.8,0,0,1-7.87-17.13q0-15.5,17.87-30.25t36.63-14.75a17.18,17.18,0,0,1,10.37,3q4.13,3,4.13,7.25Q2549.87,1192.42,2504.37,1202.42Zm.75-1.75q15.49-4.25,23.5-12,9.75-9.5,9.75-17.25,0-3.75-4.25-3.75Q2523.36,1167.67,2505.12,1200.67Z" transform="translate(-577.44 -311.72)"/><path d="M1722.9,1340.67h16l-1,1.75h-16l-31.5,53q-3.26,5.5-3.25,8c0,2.84,1.5,4.25,4.5,4.25q14,0,39-37.5,2-3,3.25-3a.44.44,0,0,1,.5.5q0,2.76-18,24.75-14.51,17.76-26.25,17.75a17.06,17.06,0,0,1-12.38-5,16.42,16.42,0,0,1-5.12-12.25q0-7.25,9.25-22.75l16.5-27.75h-12.5l1-1.75h12.5l14.25-24a24.18,24.18,0,0,0,9.75,1.75,78,78,0,0,0,13.75-1.75Z" transform="translate(-577.44 -311.72)"/><path d="M1778.14,1386.42a9.84,9.84,0,0,0,5.25,1.75q10,0,22.75-18,2-3,3-3c.5,0,.75.17.75.5q0,2-7.75,10.75-9.75,11.25-18.25,11.25a15.07,15.07,0,0,1-6.75-1.75q-16.5,22.26-32,22.25a20.63,20.63,0,0,1-15.5-6.5,22.54,22.54,0,0,1-6.25-16.25q0-15.5,18.75-30.87t37.75-15.38q12.51,0,12.5,11.25Q1792.39,1366.17,1778.14,1386.42Zm-2.25.5a14,14,0,0,1-4.25-10.25,25.27,25.27,0,0,1,4.88-14.37q4.88-7.12,9.87-7.13a5.64,5.64,0,0,1,3.75,1.5,13.28,13.28,0,0,0,.5-3.75q0-9.5-8.75-9.5-9.75,0-25.5,22.5-16.74,24-16.75,34.5,0,7.26,8,7.25Q1760.65,1407.67,1775.89,1386.92Z" transform="translate(-577.44 -311.72)"/><path d="M1885.13,1340.67h20.25l-1,1.75h-20l-25.25,45q-26.49,47.25-52.75,67-23.25,17.5-44,17.5a27,27,0,0,1-8.75-1.37c-2.66-.92-4-2-4-3.13,0-1,.59-1.5,1.75-1.5a8.88,8.88,0,0,1,2.5,1,27.11,27.11,0,0,0,12.75,2.75q16,0,30.25-16.25a92.67,92.67,0,0,0,10.75-14.87q4.75-8.13,25-45.13l27.75-51h-14.25l1-1.75h14.25l5.5-9.5q27-46.5,57.25-64.75,13.75-8.25,21-8.25,7.5,0,7.5,8.75,0,15.75-18.5,36T1885.13,1340.67Zm1.75-2.75q19-10,41.25-35.87t22.25-37.63q0-4.5-4-4.5-16.25,0-48,57.75Q1892.38,1328.42,1886.88,1337.92Z" transform="translate(-577.44 -311.72)"/><path d="M1929.63,1340.67l-29.5,50q-6,10.26-6,12.5c0,2.84,1.59,4.25,4.75,4.25q12,0,37.25-37.25,2-3,3-3c.5,0,.75.17.75.5q0,2.76-17.75,24.75-14.25,17.76-26.75,17.75a14.59,14.59,0,0,1-11.12-5,17,17,0,0,1-4.63-12q0-8.49,8.25-22.25l18-30.25a37,37,0,0,0,10.75,1.25A79.82,79.82,0,0,0,1929.63,1340.67Zm10.75-41q7.5,0,7.5,7.75,0,7-7.25,14.38t-14.5,7.37q-7.74,0-7.75-7.75,0-7,7.5-14.37T1940.38,1299.67Z" transform="translate(-577.44 -311.72)"/><path d="M1974.63,1374.92l3-3.25,7.75-11a58,58,0,0,1,13.75-14q7.75-5.49,13.75-5.5a15.7,15.7,0,0,1,12,5.13,18.2,18.2,0,0,1,4.75,12.87q0,6-4,13.25-.75,1.26-7.75,11.5-11.25,16.5-11.25,19.25c0,2.84,1.75,4.25,5.25,4.25q12,0,37.25-37.25c1.33-2,2.42-3,3.25-3a.44.44,0,0,1,.5.5q0,3-17.75,24.75-14.51,17.76-26.75,17.75a16.36,16.36,0,0,1-12.12-5.25,17,17,0,0,1-5.13-12.25q0-7,8.5-19.75,15.49-23,15.5-25.75c0-2.66-1.42-4-4.25-4q-11.51,0-31.5,28.5-9,12.75-22.75,38.5a36.28,36.28,0,0,0-10.5-1.25,85.86,85.86,0,0,0-14,1.25l16.25-27q18.49-30.75,18.5-35.5,0-3.75-3.75-3.75-7,0-25,26.75c-.67,1-1.25,1.5-1.75,1.5q-.75-.24-.75-.75,0-2,12.75-18,9.75-12.24,18.25-12.25a14.11,14.11,0,0,1,10.63,4.63,15.64,15.64,0,0,1,4.37,11.12Q1981.63,1366.17,1974.63,1374.92Z" transform="translate(-577.44 -311.72)"/><path d="M2106.63,1357.42l48.75-81a33.37,33.37,0,0,0,9.5,1.25q4.24,0,14.75-2l-51.5,84.5-13,21.75q-3.26,5.5-7.25,12.5t-4,9q0,4,5,4,12,0,37.25-37.25,2-3,3-3c.5,0,.75.17.75.5q0,2.5-18,24.75-14.25,17.76-26.25,17.75a14.84,14.84,0,0,1-11.25-4.75,16.73,16.73,0,0,1-4.5-12q0-4.5,4-12.5-18,29.25-31.75,29.25a18.34,18.34,0,0,1-14.12-6.5,22.63,22.63,0,0,1-5.88-15.75q0-15.24,18.75-31t37-15.75q10.76,0,10.75,9Q2108.63,1352.67,2106.63,1357.42Zm-5.75-14q-8.74,0-25.62,22.91t-16.88,34.87q0,6.22,5.75,6.22,10.5,0,25.75-23.16,17-25.89,17-34.11Q2106.88,1343.43,2100.88,1343.42Z" transform="translate(-577.44 -311.72)"/><path d="M2226.87,1340.67h16l-1,1.75h-16l-31.5,53q-3.26,5.5-3.25,8c0,2.84,1.5,4.25,4.5,4.25q14,0,39-37.5c1.33-2,2.42-3,3.25-3a.44.44,0,0,1,.5.5q0,2.76-18,24.75-14.51,17.76-26.25,17.75a17,17,0,0,1-12.37-5,16.43,16.43,0,0,1-5.13-12.25q0-7.25,9.25-22.75l16.5-27.75h-12.5l1-1.75h12.5l14.25-24a24.25,24.25,0,0,0,9.75,1.75,77.84,77.84,0,0,0,13.75-1.75Z" transform="translate(-577.44 -311.72)"/><path d="M2286.37,1319.7l-32.75,54.22q21.49-32.75,36.5-32.75a16.1,16.1,0,0,1,12.13,5.13,17.61,17.61,0,0,1,4.87,12.62q0,5.25-9,20l-6,9.75q-1.76,2.76-5.25,8c-1.84,2.84-2.75,5-2.75,6.5,0,2.84,1.58,4.25,4.75,4.25q12.49,0,37.75-37.25,2-3,3-3c.5,0,.75.17.75.5q0,2.25-18,24.75-14.25,17.76-26.25,17.75a17.94,17.94,0,0,1-17.5-17.5,21.67,21.67,0,0,1,2.5-10.25q2.49-4.74,17.5-27.5,3.75-5.75,3.75-8,0-3.75-3.75-3.75-9.51,0-25.62,20.38a204.51,204.51,0,0,0-27.38,46.62,32.65,32.65,0,0,0-10-1.25,97.7,97.7,0,0,0-13.25,1.25l22.5-40.75q3.24-5.75,15-26.25l38.5-66.75a38.06,38.06,0,0,0,10.5,1.5,105.25,105.25,0,0,0,14.25-1.5q-1.5,2.25-9,14.93Q2298.12,1300.8,2286.37,1319.7Z" transform="translate(-577.44 -311.72)"/><path d="M2344.12,1377.42q-6.26,10.5-6.25,20.25,0,10.5,12,10.5,22.74,0,47.75-38,2-3,3-3c.5,0,.75.17.75.5q0,1.26-5.88,9.13a141.24,141.24,0,0,1-10.37,12.62q-19.76,20.76-37,20.75-11.76,0-19.63-6.87a21.8,21.8,0,0,1-7.87-17.13q0-15.5,17.87-30.25t36.63-14.75a17.18,17.18,0,0,1,10.37,3q4.13,3,4.13,7.25Q2389.62,1367.42,2344.12,1377.42Zm.75-1.75q15.49-4.25,23.5-12,9.75-9.5,9.75-17.25,0-3.75-4.25-3.75Q2363.11,1342.67,2344.87,1375.67Z" transform="translate(-577.44 -311.72)"/><path d="M2421.62,1362.5q6.49-11.3,6.5-14.81c0-2.34-1.17-3.52-3.5-3.52q-7.5,0-25.25,26.52c-.5,1-1.09,1.48-1.75,1.48q-.75-.24-.75-.75,0-2,12.75-18,9.75-12.24,18.25-12.25a14.09,14.09,0,0,1,10.62,4.63,15.61,15.61,0,0,1,4.38,11.12q0,7.26-5.75,17,22.24-32.75,38.25-32.75a14.09,14.09,0,0,1,10.62,4.63,15.92,15.92,0,0,1,4.38,11.37q0,6.25-6.25,17.25,21-33.24,37.25-33.25a15.8,15.8,0,0,1,11.87,5.13,17.31,17.31,0,0,1,4.88,12.37,22.5,22.5,0,0,1-2.25,9.75q-2.25,4.75-11,17.75-9.75,14.5-9.75,17c0,2.84,1.58,4.25,4.75,4.25q12.49,0,37.75-37.25,2-3,3-3c.5,0,.75.17.75.5q0,2.5-18,24.75-14.25,17.76-26.25,17.75a17.94,17.94,0,0,1-17.5-17.5,21.64,21.64,0,0,1,2.62-9.87q2.63-5.11,17.88-28.63,3.49-5.49,3.5-7.25c0-2.5-1.34-3.75-4-3.75q-9,0-23.63,18t-30.87,49a33.3,33.3,0,0,0-11-1.75,67.69,67.69,0,0,0-13.25,1.75l9-14.86q25.74-42.57,25.75-47.61,0-3.53-3.75-3.53-8.76,0-24.75,19.4t-29.5,46.6a27.41,27.41,0,0,0-10.75-1.75,65.46,65.46,0,0,0-13.5,1.75l16.75-27.6Z" transform="translate(-577.44 -311.72)"/><path d="M1236.61,750.31q-34.2,28.8-59.4,70.8t-52.8,115.2q-20.4,53.41-46.5,83.4t-72.3,53.4q-72.6,36.62-140.4,36.6-45.6,0-72.6-23.4t-27-62.4q0-37.18,25.2-70.8v-12.6q0-90.59,95.1-163.8t212.7-73.2q83.4,0,144.6,33,55.8-35.38,100.2-35.4,39,0,62.4,24.3t23.4,65.1q0,39-7.8,39c-1.2,0-1.8-.79-1.8-2.4a75.79,75.79,0,0,1,1.2-7.8,160.17,160.17,0,0,0,3-28.8q0-38.38-21.9-61.5t-58.5-23.1q-43.8,0-93.6,34.2,50.4,30,50.4,75.6,0,32.4-26.1,53.1t-73.5,25.5q41.4,3,66.3,27.3t24.9,61.5q0,50.4-44.7,89.7t-102.3,39.3q-54,0-54-51,0-40.18,30.6-78t63-37.8q18,0,30,11.7t12,29.1a83.93,83.93,0,0,1-5.4,29.1q-5.4,14.71-10.2,14.7a1.59,1.59,0,0,1-1.8-1.8,6.25,6.25,0,0,1,1.2-2.4q11.4-19.19,11.4-39,0-15.59-10.5-26.1t-26.1-10.5q-30.6,0-59.4,36t-28.8,74.4q0,45.62,42.6,45.6,39,0,71.1-42.6t32.1-93.6q0-62.38-44.4-73.8a189.35,189.35,0,0,1-36,3.6q-18,0-18-4.2,0-6.59,24-6.6a125.72,125.72,0,0,1,29.4,3.6q64.2-25.2,64.2-86.4Q1261.81,773.71,1236.61,750.31Zm-6-5.29q-47.4-35.5-122.4-35.51-94.8,0-183.9,66.6t-109.5,152.4a166.48,166.48,0,0,1,59.4-33.6q18.6-39,59.4-67.5t78-28.5q49.8,0,49.8,49.8,0,61.81-61.8,123T876,1032.91q-32.4,0-55.2-19.8T792,959.71q-21.6,29.65-21.6,65.34,0,36.3,25.2,58.69t66.6,22.37q58.2,0,109.2-45.14a218.16,218.16,0,0,0,35.1-37.6q14.1-19.56,65.1-99Q1149,803.4,1230.61,745ZM813,936.31a206.57,206.57,0,0,0-1.8,21.6q0,33,17.7,51.6t48.9,18.6q58.2,0,118.2-60.3t60-118.5q0-45-42.6-45-26.4,0-56.7,23.1t-55.5,62.1a80.68,80.68,0,0,1,10.8-.6q18.6,0,34.2,12.3t15.6,26.7c0,2-1,3-3,3-.8,0-1.4-1-1.8-3q-3-15-16.2-24.6a50.72,50.72,0,0,0-30.6-9.6c-3.6,0-7.6.21-12,.6q-18.6,33.62-18.6,56.4,0,31.81,25.2,31.2c3.2,0,4.8.81,4.8,2.4,0,2-2.4,3-7.2,3q-15.6,0-27-14.4T864,938.71q0-16.2,7.8-37.8Q841.21,911.71,813,936.31Z" transform="translate(-577.44 -311.72)"/><path d="M1442.41,1047.91c4.4,2.81,8.6,4.2,12.6,4.2q24,0,54.6-43.2,4.8-7.2,7.2-7.2c1.2,0,1.8.41,1.8,1.2q0,4.82-18.6,25.8-23.4,27-43.8,27a36,36,0,0,1-16.2-4.2q-39.6,53.41-76.8,53.4-22.2,0-37.2-15.6t-15-39q0-37.18,45-74.1t90.6-36.9q30,0,30,27Q1476.61,999.33,1442.41,1047.91Zm-5.4,1.2a33.51,33.51,0,0,1-10.2-24.6q0-17.38,11.7-34.5t23.7-17.1a13.6,13.6,0,0,1,9,3.6,32.52,32.52,0,0,0,1.2-9q0-22.78-21-22.8-23.4,0-61.2,54-40.2,57.6-40.2,82.8,0,17.41,19.2,17.4Q1400.4,1098.91,1437,1049.11Z" transform="translate(-577.44 -311.72)"/><path d="M1623.6,1047.91c4.4,2.81,8.6,4.2,12.6,4.2q24,0,54.6-43.2,4.8-7.2,7.2-7.2c1.2,0,1.8.41,1.8,1.2q0,4.82-18.6,25.8-23.4,27-43.8,27a36,36,0,0,1-16.2-4.2q-39.6,53.41-76.8,53.4-22.2,0-37.2-15.6t-15-39q0-37.18,45-74.1t90.6-36.9q30,0,30,27Q1657.8,999.33,1623.6,1047.91Zm-5.4,1.2a33.51,33.51,0,0,1-10.2-24.6q0-17.38,11.7-34.5t23.7-17.1a13.6,13.6,0,0,1,9,3.6,32.52,32.52,0,0,0,1.2-9q0-22.78-21-22.8-23.4,0-61.2,54-40.2,57.6-40.2,82.8,0,17.41,19.2,17.4Q1581.6,1098.91,1618.2,1049.11Z" transform="translate(-577.44 -311.72)"/><path d="M1878,782.71l-76.21,123.6q-78.6,127.8-112.2,198a87.11,87.11,0,0,0-23.4-3,168.37,168.37,0,0,0-30.6,3q30.62-56,101.41-180.67l81.59-140.93a58.12,58.12,0,0,0,25.2,5.4Q1857.59,788.11,1878,782.71Zm-102,224.17q39,10.75,39,33.46,0,6.59-5.41,24.5t-5.4,22.71q0,9.57,10.81,9.56,11.38,0,35.09-24.74t49.5-63.5q4.8-7.15,7.2-7.16c1.21,0,1.8.41,1.8,1.19q0,7.19-42.59,59.06-34.82,42.35-66.6,42.35-18.62,0-31.5-11t-12.9-27.13q0-10.74,9.29-27.42t9.3-25a11.52,11.52,0,0,0-.59-3.58,41,41,0,0,1-17.41,4.2c-6.8,0-10.19-2-10.19-6,0-3.19,2.79-4.8,8.39-4.8q4.2,0,16.8,2.4,15.6-7.78,44.41-42.6,19.18-23.4,36.59-23.4,22.8,0,22.81,24.6,0,16.2-10.5,30t-23.11,13.8q-18,0-18-18.6,0-17.38,19.21-25.8,12.6-5.4,12.59-9.6c0-4.39-2.8-6.6-8.4-6.6q-10.2,0-23.4,13.15-9.6,10.77-18.6,21.51Q1788.59,1000.31,1776,1006.88Z" transform="translate(-577.44 -311.72)"/><path d="M1913.39,1001.71l56.4-63.6q1.8-22.18,11.1-37.8t21.3-15.6c5.6,0,8.4,2.81,8.4,8.4q0,9-34.2,43.2l-4.2,4.2q0,26.41,21,61.8,10.8,18.62,10.8,33,0,29.42-27.9,49.2t-69.3,19.8q-48.6,0-48.6-42,0-22.79,15-42.3t32.4-19.5A24.85,24.85,0,0,1,1913.39,1001.71Zm55.8-57.6-51.6,59.4q8.4,7.82,8.4,16.8,0,25.2-33,28.8-28.21,3.6-28.2,22.2,0,10.21,8.1,17.7a27.64,27.64,0,0,0,19.5,7.5q30,0,57-52.8,12-23.4,16.2-79.2A155.65,155.65,0,0,1,1969.19,944.11Z" transform="translate(-577.44 -311.72)"/><path d="M933.38,3337.12a116.38,116.38,0,0,0-24.75,29.5q-10.5,17.51-22,48-8.5,22.24-19.38,34.75t-30.12,22.25q-30.25,15.26-58.5,15.25-19,0-30.25-9.75t-11.25-26q0-15.49,10.5-29.5v-5.25q0-37.76,39.62-68.25t88.63-30.5q34.74,0,60.25,13.75,23.25-14.74,41.75-14.75,16.25,0,26,10.12t9.75,27.13q0,16.24-3.25,16.25c-.5,0-.75-.33-.75-1a29.32,29.32,0,0,1,.5-3.25,67,67,0,0,0,1.25-12q0-16-9.13-25.63t-24.37-9.62q-18.25,0-39,14.25,21,12.49,21,31.5,0,13.5-10.88,22.12t-30.62,10.63q17.25,1.24,27.62,11.37t10.38,25.63q0,21-18.63,37.37t-42.62,16.38q-22.5,0-22.5-21.25,0-16.76,12.75-32.5t26.25-15.75a17.2,17.2,0,0,1,12.5,4.87,16.28,16.28,0,0,1,5,12.13,35,35,0,0,1-2.25,12.12q-2.25,6.14-4.25,6.13a.66.66,0,0,1-.75-.75,2.46,2.46,0,0,1,.5-1,31.56,31.56,0,0,0,4.75-16.25,14.95,14.95,0,0,0-15.25-15.25q-12.75,0-24.75,15t-12,31q0,19,17.75,19,16.25,0,29.62-17.75t13.38-39q0-26-18.5-30.75a79,79,0,0,1-15,1.5q-7.5,0-7.5-1.75,0-2.74,10-2.75a52.4,52.4,0,0,1,12.25,1.5q26.75-10.5,26.75-36Q943.88,3346.87,933.38,3337.12Zm-2.5-2.21q-19.75-14.79-51-14.79-39.51,0-76.63,27.75t-45.62,63.5a69.26,69.26,0,0,1,24.75-14q7.74-16.24,24.75-28.13t32.5-11.87q20.75,0,20.75,20.75,0,25.76-25.75,51.25t-51.5,25.5q-13.5,0-23-8.25t-12-22.25a45.18,45.18,0,0,0-9,27.22q0,15.13,10.5,24.45t27.75,9.33q24.24,0,45.5-18.81a90.78,90.78,0,0,0,14.62-15.67q5.88-8.14,27.13-41.25Q896.88,3359.24,930.88,3334.91Zm-174,79.71a86,86,0,0,0-.75,9q0,13.76,7.37,21.5t20.38,7.75q24.24,0,49.25-25.13t25-49.37q0-18.75-17.75-18.75-11,0-23.63,9.62t-23.12,25.88a32.27,32.27,0,0,1,4.5-.25,22.57,22.57,0,0,1,14.25,5.12q6.5,5.13,6.5,11.13a1.11,1.11,0,0,1-1.25,1.25c-.34,0-.59-.42-.75-1.25a16.38,16.38,0,0,0-6.75-10.25,21.1,21.1,0,0,0-12.75-4c-1.5,0-3.17.08-5,.25q-7.75,14-7.75,23.5,0,13.24,10.5,13c1.33,0,2,.33,2,1,0,.83-1,1.25-3,1.25q-6.51,0-11.25-6a22.25,22.25,0,0,1-4.75-14.25,47.29,47.29,0,0,1,3.25-15.75A75.74,75.74,0,0,0,756.88,3414.62Z" transform="translate(-577.44 -311.72)"/><path d="M969.63,3446.12l9.5-16.25q3-5,7.5-13.5a61.8,61.8,0,0,0,12,1,68.18,68.18,0,0,0,11.75-1l-18.75,31.75q-15.51,26.25-15.5,30.25c0,2.5,1.41,3.75,4.25,3.75q17,0,54.5-65.75a44.45,44.45,0,0,0,10.5,1,111.35,111.35,0,0,0,13.5-1l-13.5,22.25q-7,11.51-17,29.5l-9,16q27.24-10.76,46.25-39.25,2-3,3-3c.5,0,.75.17.75.5a4.41,4.41,0,0,1-.25,1l-2,3q-20.25,30.49-48.75,40-15.25,26-23.13,36.75a147.56,147.56,0,0,1-20.37,22A120.41,120.41,0,0,1,947,3563.87q-15.37,7.5-26.12,7.5a18.6,18.6,0,0,1-14.25-6.25q-5.75-6.26-5.75-15.75,0-22.5,29.5-39.25,17.25-9.75,63-19.5l21.25-38.75q-21.75,33-38,33a14.63,14.63,0,0,1-11.13-5,17.05,17.05,0,0,1-4.62-12Q960.88,3461.12,969.63,3446.12Zm16.75,57,6.25-10.75q-35.5,7.5-59.25,25.75t-23.75,38q0,13.74,12.25,13.75,14.5,0,28.75-14.88T986.38,3503.12Z" transform="translate(-577.44 -311.72)"/><path d="M1090.13,3453.87q8,0,8,8.25,0,7-7.25,14.12t-14.25,7.13q-8,0-8-7.5,0-7,7.25-14.5T1090.13,3453.87Zm20.5-37.75q8,0,8,8.25,0,7-7.25,14.12t-14.25,7.13q-8,0-8-7.5,0-7,7.25-14.5T1110.63,3416.12Z" transform="translate(-577.44 -311.72)"/><path d="M1236.7,3474.79a22.65,22.65,0,0,1-.2,3.27,8.12,8.12,0,0,1-.63,2.25,3.51,3.51,0,0,1-1.08,1.37,2.61,2.61,0,0,1-1.51.44h-55.86a6.92,6.92,0,0,1-4.25-1.52q-2-1.51-2-5.32v-117a2.42,2.42,0,0,1,.39-1.37,2.64,2.64,0,0,1,1.37-.93,15.36,15.36,0,0,1,2.63-.58,28.41,28.41,0,0,1,4-.25,28.11,28.11,0,0,1,4,.25,15.45,15.45,0,0,1,2.59.58,2.68,2.68,0,0,1,1.37.93,2.5,2.5,0,0,1,.39,1.37v109.28h45.31a2.54,2.54,0,0,1,1.51.44,3.52,3.52,0,0,1,1.08,1.27,6.82,6.82,0,0,1,.63,2.19A23.92,23.92,0,0,1,1236.7,3474.79Z" transform="translate(-577.44 -311.72)"/><path d="M1271.36,3362.1c0,3.77-.71,6.35-2.14,7.71s-4.07,2.05-7.91,2.05-6.37-.66-7.77-2-2.1-3.86-2.1-7.57.72-6.34,2.15-7.71,4.07-2,7.91-2,6.36.67,7.76,2S1271.36,3358.39,1271.36,3362.1Zm-1.85,117.58a2.14,2.14,0,0,1-.39,1.31,3.09,3.09,0,0,1-1.27.93,9,9,0,0,1-2.44.59,33.67,33.67,0,0,1-4,.19,32.47,32.47,0,0,1-3.9-.19,9.7,9.7,0,0,1-2.49-.59,2.63,2.63,0,0,1-1.27-.93,2.34,2.34,0,0,1-.34-1.31v-87.89a2.44,2.44,0,0,1,.34-1.27,2.51,2.51,0,0,1,1.27-1,9.7,9.7,0,0,1,2.49-.59,32.47,32.47,0,0,1,3.9-.19,33.67,33.67,0,0,1,4,.19,9,9,0,0,1,2.44.59,2.91,2.91,0,0,1,1.27,1,2.24,2.24,0,0,1,.39,1.27Z" transform="translate(-577.44 -311.72)"/><path d="M1380.15,3434.56a78.21,78.21,0,0,1-2.49,20.56,45.82,45.82,0,0,1-7.32,15.57,32.21,32.21,0,0,1-11.87,9.86,36.34,36.34,0,0,1-16.11,3.42,33.76,33.76,0,0,1-7.76-.83,28,28,0,0,1-7-2.68,42.76,42.76,0,0,1-6.83-4.69,84.94,84.94,0,0,1-7.23-6.84v10.75a2.39,2.39,0,0,1-.39,1.36,2.59,2.59,0,0,1-1.27.93,10.1,10.1,0,0,1-2.2.54,23.73,23.73,0,0,1-3.36.19,24.25,24.25,0,0,1-3.33-.19,10.08,10.08,0,0,1-2.24-.54,2,2,0,0,1-1.17-.93,2.93,2.93,0,0,1-.3-1.36V3349.21a2.66,2.66,0,0,1,.35-1.37,2.51,2.51,0,0,1,1.27-1,9.53,9.53,0,0,1,2.49-.58,32.2,32.2,0,0,1,3.9-.2,33.5,33.5,0,0,1,4,.2,9,9,0,0,1,2.44.58,2.91,2.91,0,0,1,1.27,1,2.42,2.42,0,0,1,.39,1.37v52.63a63.79,63.79,0,0,1,7.57-6.73,44.52,44.52,0,0,1,7.17-4.45,32,32,0,0,1,7-2.49,34.27,34.27,0,0,1,7.43-.78q9.57,0,16.35,3.81a31.61,31.61,0,0,1,11,10.2,44.88,44.88,0,0,1,6.2,15A82,82,0,0,1,1380.15,3434.56Zm-16.7,1.85a81.14,81.14,0,0,0-1-13.08,36.93,36.93,0,0,0-3.58-11.23,21.83,21.83,0,0,0-6.78-7.86,17.78,17.78,0,0,0-10.52-3,22.1,22.1,0,0,0-6.19.88,22.94,22.94,0,0,0-6.19,2.93,46.15,46.15,0,0,0-6.53,5.27,75.09,75.09,0,0,0-7.22,8.11v35.05a66.31,66.31,0,0,0,12.77,12.36,21.88,21.88,0,0,0,12.68,4.25,18.13,18.13,0,0,0,10.41-2.93,22.41,22.41,0,0,0,7-7.77,37.14,37.14,0,0,0,3.94-10.84A61.09,61.09,0,0,0,1363.45,3436.41Z" transform="translate(-577.44 -311.72)"/><path d="M1455.74,3397.55c0,1.43,0,2.63-.1,3.61a8.61,8.61,0,0,1-.39,2.3,3.27,3.27,0,0,1-.73,1.26,1.62,1.62,0,0,1-1.22.44,5.3,5.3,0,0,1-1.91-.44c-.75-.29-1.59-.58-2.54-.87s-2-.57-3.17-.83a17.56,17.56,0,0,0-3.81-.39,12.3,12.3,0,0,0-4.78,1,18.62,18.62,0,0,0-4.93,3.22,39.81,39.81,0,0,0-5.42,6q-2.84,3.72-6.25,9.08v57.82a2.15,2.15,0,0,1-.4,1.31,3,3,0,0,1-1.26.93,9,9,0,0,1-2.45.59,33.49,33.49,0,0,1-4,.19,32.65,32.65,0,0,1-3.91-.19,9.7,9.7,0,0,1-2.49-.59,2.68,2.68,0,0,1-1.27-.93,2.43,2.43,0,0,1-.34-1.31v-87.89a2.66,2.66,0,0,1,.3-1.32,2.52,2.52,0,0,1,1.17-1,6.68,6.68,0,0,1,2.24-.59c.91-.09,2.12-.14,3.62-.14s2.62,0,3.56.14a5.89,5.89,0,0,1,2.2.59,3.05,3.05,0,0,1,1.12,1,2.38,2.38,0,0,1,.34,1.32v12.79a68.89,68.89,0,0,1,6.79-8.6,37.69,37.69,0,0,1,6-5.22,18.59,18.59,0,0,1,5.61-2.64,22,22,0,0,1,5.62-.73q1.26,0,2.88.15a25.72,25.72,0,0,1,3.37.53,30.19,30.19,0,0,1,3.17.88,6.69,6.69,0,0,1,2,1,2.73,2.73,0,0,1,.78.93,6,6,0,0,1,.35,1.12,13.23,13.23,0,0,1,.19,2C1455.72,3394.86,1455.74,3396.05,1455.74,3397.55Z" transform="translate(-577.44 -311.72)"/><path d="M1536.21,3479.77a2.06,2.06,0,0,1-.78,1.76,5.57,5.57,0,0,1-2.15.88,20.21,20.21,0,0,1-4,.29,21.87,21.87,0,0,1-4-.29,4.89,4.89,0,0,1-2.2-.88,2.21,2.21,0,0,1-.68-1.76V3471a43.08,43.08,0,0,1-12.84,9.57,34,34,0,0,1-15,3.42,41,41,0,0,1-12.55-1.8,27.28,27.28,0,0,1-9.57-5.23,23.35,23.35,0,0,1-6.15-8.4,27.7,27.7,0,0,1-2.2-11.33,26.22,26.22,0,0,1,3-12.89,25.12,25.12,0,0,1,8.69-9.08,42.75,42.75,0,0,1,13.87-5.42,86.33,86.33,0,0,1,18.45-1.8h12.11v-6.84a34.18,34.18,0,0,0-1.07-9,15.4,15.4,0,0,0-3.47-6.5,14.92,14.92,0,0,0-6.2-3.91,29.15,29.15,0,0,0-9.37-1.31,37.48,37.48,0,0,0-10.7,1.41,57.8,57.8,0,0,0-8.3,3.13c-2.38,1.14-4.36,2.18-6,3.12a8.14,8.14,0,0,1-3.56,1.42,2.42,2.42,0,0,1-1.37-.39,3.3,3.3,0,0,1-1-1.17,5.87,5.87,0,0,1-.64-2,20.71,20.71,0,0,1,.15-6.54,5.57,5.57,0,0,1,1.66-2.68,21.11,21.11,0,0,1,4.54-3,50.5,50.5,0,0,1,7.42-3.13,68.22,68.22,0,0,1,9.18-2.34,54.66,54.66,0,0,1,10.06-.93,52.8,52.8,0,0,1,16.11,2.15,26.06,26.06,0,0,1,10.75,6.3,24.37,24.37,0,0,1,5.95,10.3,49.79,49.79,0,0,1,1.86,14.36Zm-16-40.13h-13.77a51.85,51.85,0,0,0-11.52,1.12,23.86,23.86,0,0,0-8.11,3.32,13.75,13.75,0,0,0-4.73,5.27,15.82,15.82,0,0,0-1.52,7.08q0,6.84,4.35,10.89t12.16,4.06a22.64,22.64,0,0,0,11.77-3.23,50.67,50.67,0,0,0,11.37-9.86Z" transform="translate(-577.44 -311.72)"/><path d="M1617.17,3397.55c0,1.43,0,2.63-.1,3.61a9.5,9.5,0,0,1-.39,2.3,3.28,3.28,0,0,1-.74,1.26,1.62,1.62,0,0,1-1.22.44,5.25,5.25,0,0,1-1.9-.44c-.75-.29-1.6-.58-2.54-.87s-2-.57-3.17-.83a17.62,17.62,0,0,0-3.81-.39,12.39,12.39,0,0,0-4.79,1,18.94,18.94,0,0,0-4.93,3.22,40.91,40.91,0,0,0-5.42,6q-2.84,3.72-6.25,9.08v57.82a2.14,2.14,0,0,1-.39,1.31,3,3,0,0,1-1.27.93,8.87,8.87,0,0,1-2.44.59,33.61,33.61,0,0,1-4,.19,32.53,32.53,0,0,1-3.91-.19,9.7,9.7,0,0,1-2.49-.59,2.68,2.68,0,0,1-1.27-.93,2.34,2.34,0,0,1-.34-1.31v-87.89a2.77,2.77,0,0,1,.29-1.32,2.63,2.63,0,0,1,1.17-1,6.81,6.81,0,0,1,2.25-.59c.91-.09,2.11-.14,3.61-.14s2.62,0,3.57.14a5.83,5.83,0,0,1,2.19.59,3.09,3.09,0,0,1,1.13,1,2.46,2.46,0,0,1,.34,1.32v12.79a68.89,68.89,0,0,1,6.79-8.6,37.23,37.23,0,0,1,6-5.22,18.63,18.63,0,0,1,5.62-2.64,21.82,21.82,0,0,1,5.61-.73q1.28,0,2.88.15a25.21,25.21,0,0,1,3.37.53,31.11,31.11,0,0,1,3.18.88,6.69,6.69,0,0,1,2,1,2.73,2.73,0,0,1,.78.93,6,6,0,0,1,.34,1.12,13,13,0,0,1,.2,2C1617.15,3394.86,1617.17,3396.05,1617.17,3397.55Z" transform="translate(-577.44 -311.72)"/><path d="M1676.54,3482.12l-11.72,32.32a4.42,4.42,0,0,1-3,2.39,23.48,23.48,0,0,1-7.27.83,28,28,0,0,1-4.1-.24,5.69,5.69,0,0,1-2.4-.83,2.08,2.08,0,0,1-.92-1.56,4.83,4.83,0,0,1,.48-2.35l12.11-30.56a5.05,5.05,0,0,1-1.66-1.27A4.91,4.91,0,0,1,1657,3479l-31.35-84a9.81,9.81,0,0,1-.78-3.22,2.34,2.34,0,0,1,.78-1.86,4.92,4.92,0,0,1,2.54-.93,36.19,36.19,0,0,1,4.69-.24c1.95,0,3.48,0,4.59.14a9.64,9.64,0,0,1,2.63.54,2.82,2.82,0,0,1,1.42,1.12,14.06,14.06,0,0,1,.93,2l25.1,70.5h.29l24.22-70.89a4.39,4.39,0,0,1,1.41-2.4,6.76,6.76,0,0,1,2.49-.78,35.91,35.91,0,0,1,4.79-.24,34.3,34.3,0,0,1,4.49.24,5.23,5.23,0,0,1,2.59.93,2.29,2.29,0,0,1,.83,1.86,9.63,9.63,0,0,1-.59,2.92Z" transform="translate(-577.44 -311.72)"/><path d="M1825.17,3479.19a4.89,4.89,0,0,1-1.07,1.76,4.71,4.71,0,0,1-1.91,1.07,14.06,14.06,0,0,1-3.12.54c-1.27.09-2.85.14-4.74.14-1.43,0-2.68,0-3.76,0a20.74,20.74,0,0,1-2.78-.24,17.66,17.66,0,0,1-2-.44,5,5,0,0,1-1.42-.63,3.17,3.17,0,0,1-.93-.93,7.41,7.41,0,0,1-.63-1.32l-41.31-117.38a12,12,0,0,1-.83-3.47,2.28,2.28,0,0,1,.83-2,5.55,5.55,0,0,1,2.83-.88c1.3-.13,3.06-.2,5.28-.2,1.82,0,3.27.05,4.34.15a8.15,8.15,0,0,1,2.49.54,3,3,0,0,1,1.32,1,8.56,8.56,0,0,1,.83,1.61l36.23,106.35h.1l35.25-106.15a7.87,7.87,0,0,1,.69-1.76,2.61,2.61,0,0,1,1.36-1.07,10,10,0,0,1,2.74-.54c1.17-.1,2.73-.15,4.69-.15a36.9,36.9,0,0,1,4.78.25,4,4,0,0,1,2.39.93,2.38,2.38,0,0,1,.49,2,16,16,0,0,1-.93,3.46Z" transform="translate(-577.44 -311.72)"/><path d="M1971.85,3479.58a3.14,3.14,0,0,1-.29,1.37,2.3,2.3,0,0,1-1.27,1,10.84,10.84,0,0,1-2.73.59,45,45,0,0,1-4.69.19,35.83,35.83,0,0,1-4.15-.19,8.8,8.8,0,0,1-2.59-.64,3.48,3.48,0,0,1-1.51-1.22,7.7,7.7,0,0,1-.93-2l-11.62-29.79q-2.05-5.07-4.25-9.32a30.15,30.15,0,0,0-5.23-7.33,21.41,21.41,0,0,0-7.12-4.78,25.65,25.65,0,0,0-9.87-1.71h-11.23v53.81a2.2,2.2,0,0,1-.44,1.37,2.85,2.85,0,0,1-1.36.92,13.17,13.17,0,0,1-2.54.59,34.38,34.38,0,0,1-8.11,0,14.41,14.41,0,0,1-2.59-.59,2.54,2.54,0,0,1-1.36-.92,2.44,2.44,0,0,1-.39-1.37v-117c0-2.54.66-4.32,2-5.33a6.91,6.91,0,0,1,4.25-1.51h26.85q4.78,0,8,.24c2.11.17,4,.35,5.71.54a48.07,48.07,0,0,1,12.94,4,30.57,30.57,0,0,1,9.43,6.93,28.05,28.05,0,0,1,5.71,9.62,35.85,35.85,0,0,1,1.9,12,35.25,35.25,0,0,1-1.71,11.38,27.49,27.49,0,0,1-4.93,8.88A32.38,32.38,0,0,1,1950,3416a49.51,49.51,0,0,1-10.06,4.79,23.75,23.75,0,0,1,5.66,3.47,29,29,0,0,1,4.74,5,46.75,46.75,0,0,1,4.15,6.73q2,3.81,3.91,8.6l11.32,27.83c.92,2.34,1.5,4,1.76,4.93A9,9,0,0,1,1971.85,3479.58Zm-25.29-88.77a22.64,22.64,0,0,0-3.32-12.55q-3.32-5.13-11.13-7.37a31.79,31.79,0,0,0-5.52-1c-2-.2-4.74-.29-8.06-.29h-14.16v42.58h16.41a36.18,36.18,0,0,0,11.47-1.62,22.57,22.57,0,0,0,8.06-4.49,17.44,17.44,0,0,0,4.74-6.79A23.46,23.46,0,0,0,1946.56,3390.81Z" transform="translate(-577.44 -311.72)"/></svg>